HIERARCHY
ROOT Hips
{
	OFFSET	0	0	0
	CHANNELS 6  Xposition Yposition Zposition Xrotation Yrotation Zrotation
	JOINT Spine
	{
		OFFSET	0	7.00908	1.40711
		CHANNELS 3  Xrotation Yrotation Zrotation
		JOINT Spine1
		{
			OFFSET	0	11.9997	-2.14281
			CHANNELS 3  Xrotation Yrotation Zrotation
			JOINT Spine2
			{
				OFFSET	0	9.09621	0.974976
				CHANNELS 3  Xrotation Yrotation Zrotation
				JOINT Spine3
				{
					OFFSET	0	10.8855	3.23564
					CHANNELS 3  Xrotation Yrotation Zrotation
					JOINT Spine4
					{
						OFFSET	0	16.1139	-1.64996
						CHANNELS 3  Xrotation Yrotation Zrotation
						JOINT Neck
						{
							OFFSET	0	7.69267	-5.38915
							CHANNELS 3  Xrotation Yrotation Zrotation
							JOINT Head
							{
								OFFSET	0	9.23549	-2.76422
								CHANNELS 3  Xrotation Yrotation Zrotation
								End Site
								{
									OFFSET	0	19.2638	-0.93212
								}
							}
						}
					}
					JOINT LeftShoulder
					{
						OFFSET	-4.62846	19.5852	-9.23549
						CHANNELS 3  Xrotation Yrotation Zrotation
						JOINT LeftArm
						{
							OFFSET	-10.1082	-2.76422	3.54636
							CHANNELS 3  Xrotation Yrotation Zrotation
							JOINT LeftForeArm
							{
								OFFSET	-30.9178	-1.41114	2.20688
								CHANNELS 3  Xrotation Yrotation Zrotation
								JOINT LeftHand
								{
									OFFSET	-25.989	-1.79599	1.85507
									CHANNELS 3  Xrotation Yrotation Zrotation
									End Site
									{
										OFFSET	-9.4847	-0.655447	0.676963
									}
								}
							}
						}
					}
					JOINT RightShoulder
					{
						OFFSET	4.62846	19.5852	-9.23549
						CHANNELS 3  Xrotation Yrotation Zrotation
						JOINT RightArm
						{
							OFFSET	10.1082	-2.76422	3.54636
							CHANNELS 3  Xrotation Yrotation Zrotation
							JOINT RightForeArm
							{
								OFFSET	30.9178	-1.41114	2.20688
								CHANNELS 3  Xrotation Yrotation Zrotation
								JOINT RightHand
								{
									OFFSET	25.989	-1.79599	1.85507
									CHANNELS 3  Xrotation Yrotation Zrotation
									End Site
									{
										OFFSET	9.4847	-0.655447	0.676963
									}
								}
							}
						}
					}
				}
			}
		}
	}
	JOINT LeftUpLeg
	{
		OFFSET	-9.51492	-3.50454	-0.703555
		CHANNELS 3  Xrotation Yrotation Zrotation
		JOINT LeftLeg
		{
			OFFSET	-2.15663	-42.2584	-0.660591
			CHANNELS 3  Xrotation Yrotation Zrotation
			JOINT LeftFoot
			{
				OFFSET	-2.11138	-38.9194	3.34707
				CHANNELS 3  Xrotation Yrotation Zrotation
				JOINT LeftToeBase
				{
					OFFSET	0	-4.8091	-12.773
					CHANNELS 3  Xrotation Yrotation Zrotation
					End Site
					{
						OFFSET	0	-1.92364	-7.69456
					}
				}
			}
		}
	}
	JOINT RightUpLeg
	{
		OFFSET	9.51492	-3.50454	-0.703555
		CHANNELS 3  Xrotation Yrotation Zrotation
		JOINT RightLeg
		{
			OFFSET	2.15663	-42.2584	-0.660591
			CHANNELS 3  Xrotation Yrotation Zrotation
			JOINT RightFoot
			{
				OFFSET	2.11138	-38.9194	3.34707
				CHANNELS 3  Xrotation Yrotation Zrotation
				JOINT RightToeBase
				{
					OFFSET	0	-4.8091	-12.773
					CHANNELS 3  Xrotation Yrotation Zrotation
					End Site
					{
						OFFSET	0	-1.92364	-7.69456
					}
				}
			}
		}
	}
}
MOTION
Frames: 17
Frame Time: 0.020408
 0 -9.53305 2.91081 -0 0 -0 -0 0 -0 -0 0 -0 -0 0 -0 -0 0 -0 -0 0 -0 -0 0 -0 -0 0 -0 -0 0 -0 -0 0 -0 -0 0 -0 -0 0 -0 -0 0 -0 -0 0 -0 -0 0 -0 -0 0 -0 -0 0 -0 -0 0 -0 -0 0 -0 -0 0 -0 -0 0 -0 -0 0 -0 -0 0 -0 -0 0 -0
 121.507 91.6761 70.1657 173.542 160.762 -173.462 180 -179.942 179.746 2.1512 -0.116952 -0.42356 2.38195 -0.350856 -0.423567 2.13187 -0.058477 -0.254136 179.09 179.999 179.915 174.864 179.402 167.94 178.575 167.988 177.667 0.844764 -21.1887 1.82432 158.623 -148.905 -121.688 178.998 -146.412 177.692 -0 9.75916 9.80149 175.966 179.872 -172.175 130.186 158.54 133.852 149.325 76.9489 -148.322 -0 18.9912 -4.70926 27.2529 7.01022 -5.97941 149.167 175.797 -179.279 7.1356 1.64244 -1.82432 1.40931 0 0 5.6692 6.02042 -8.05776 165.973 -173.879 -177.281 12.4575 1.26151 -3.14109 179.522 180 -180
 120.362 91.5952 69.3456 173.636 160.876 -173.536 180 -179.936 179.695 2.16166 -0.127685 -0.50794 2.43873 -0.383054 -0.507951 2.27953 -0.063844 -0.304764 178.766 179.998 179.898 173.914 179.376 167.637 178.289 168.01 177.636 0.933874 -22.1915 2.02035 159.356 -148.511 -121.604 179.142 -146.423 177.827 -0 10.2665 9.88075 175.696 -178.686 -171.758 130.495 160.26 134.167 150.494 76.7752 -149.361 -0 19.806 -4.49393 26.1441 7.24635 -5.28304 149.111 176.075 -179.456 8.49347 1.51872 -1.91289 1.40618 0 0 5.45829 6.12649 -7.55413 164.77 -172.904 -177.514 13.3636 1.27053 -3.61939 179.535 180 -180
 119.505 91.4999 68.5406 173.644 160.784 -173.651 180 -179.937 179.736 2.11218 -0.125402 -0.440598 2.45078 -0.376207 -0.440606 2.43007 -0.0627023 -0.264358 178.321 179.997 179.912 172.744 179.028 167.935 177.914 168.072 177.785 0.973075 -23.5975 2.10927 160.145 -147.983 -121.642 179.396 -145.799 177.915 -0 10.56 9.9569 175.688 -177.218 -171.86 130.837 161.929 134.227 149.832 77.4679 -148.796 -0 20.3522 -4.25704 25.3213 7.74359 -4.73241 149.1 176.151 -179.608 9.51869 1.49436 -1.86098 1.42505 0 0 5.30136 6.25071 -7.15307 163.941 -171.938 -177.705 14.0996 1.75201 -3.24504 179.625 180 -180
 118.767 91.5077 67.9553 173.202 161.285 -173.865 180 -179.958 179.828 2.14588 -0.0837703 -0.285969 2.52869 -0.251311 -0.285972 2.58168 -0.0418855 -0.171581 178.03 179.998 179.943 171.912 178.853 168.11 177.651 168.201 177.87 0.986148 -24.6156 2.13981 160.902 -147.682 -121.966 179.684 -145.409 178.062 -0 10.8124 9.94184 175.736 -175.827 -172.067 131.336 164.014 134.417 146.849 79.1623 -145.644 -0 20.5472 -4.09257 24.0789 8.02008 -3.9735 150.755 176.513 -179.632 9.98267 1.17446 -1.8603 1.37874 0 0 6.23551 6.03371 -6.40405 162.015 -170.762 -178.102 14.9127 1.62083 -4.24976 179.583 180 -180
 117.905 91.4211 66.9123 172.949 161.115 -174.126 180 -179.956 179.884 2.17736 -0.0880292 -0.193941 2.57094 -0.264088 -0.193942 2.63422 -0.0440148 -0.116364 177.967 179.999 179.961 171.753 178.674 168.699 177.588 168.42 178.022 0.974174 -25.336 2.11494 161.927 -147.492 -122.1 0.0168759 -35.5447 -1.77289 -0 10.8817 9.78654 175.55 -173.778 -171.905 132.447 166.6 134.216 143.919 80.4352 -142.602 -0 20.832 -3.84594 22.9217 8.65203 -3.07399 151.469 176.402 -179.984 10.9617 1.07899 -1.87088 1.36163 0 0 6.00183 6.36178 -5.79493 161.331 -169.99 -178.24 15.7395 2.00976 -4.10103 179.708 180 -180
 117.325 91.3686 66.1797 172.67 161.813 -173.958 180 -179.962 179.842 2.2129 -0.0769271 -0.262889 2.60863 -0.230781 -0.262891 2.6647 -0.0384638 -0.157733 177.963 179.998 179.947 171.747 178.592 169.227 177.576 168.706 178.141 1.09295 -25.7365 2.37345 162.9 -147.438 -122.475 0.246722 -36.2306 -1.72946 -0 10.9898 9.35348 175.754 -172.464 -172.399 134.958 169.512 134.003 137.88 81.8999 -136.487 -0 20.9577 -3.25313 21.921 9.39231 -3.13187 152.546 176.672 -179.922 11.735 0.668768 -1.55332 1.31342 0 0 6.949 5.85938 -5.35697 159.248 -168.85 -179.012 16.4395 1.89375 -4.89424 179.655 180 -180
 116.437 91.2232 65.2391 172.227 161.268 -173.854 180 -179.948 179.882 2.20856 -0.104819 -0.197259 2.60912 -0.314457 -0.197262 2.67635 -0.0524098 -0.118355 177.927 179.999 179.961 171.683 178.59 169.726 177.55 169.132 178.241 1.13933 -26.4473 2.47492 164.023 -147.321 -122.751 0.476639 -37.0176 -1.46781 -0 11.0087 8.94823 175.638 -170.158 -172.416 136.939 172.797 133.681 126.584 83.3338 -125.255 -0 20.9641 -2.42178 21.3217 9.79216 -2.52571 152.754 176.696 179.931 12.7947 0.355442 -1.69553 1.26792 0 0 7.0885 5.53508 -4.89873 158.512 -167.886 -179.064 17.0978 1.95902 -5.19762 179.744 180 -180
 116.128 91.0907 64.6497 172.087 161.429 -173.42 180 -179.951 179.764 2.1804 -0.0974178 -0.393134 2.5743 -0.292253 -0.393139 2.63956 -0.0487096 -0.23588 177.96 179.997 179.921 171.81 178.752 169.941 177.59 169.566 178.252 1.13581 -26.4426 2.46726 164.685 -147.628 -122.452 0.614989 -37.2042 -1.51325 -0 11.0711 8.35089 175.646 -169.311 -172.516 139.495 175.654 133.57 113.362 84.1276 -111.871 -0 20.9968 -1.41401 20.4124 10.3944 -2.98442 153.837 176.995 179.996 13.5659 0.12411 -0.926156 1.21476 0 0 8.23522 3.69914 -4.84712 155.937 -166.683 -179.604 17.7601 1.78011 -6.158 179.671 180 -180
 115.671 90.8845 63.9737 171.823 161.792 -174.098 180 -179.922 179.894 2.26196 -0.15588 -0.177427 2.61781 -0.467639 -0.177433 2.57859 -0.07794 -0.106456 178.256 179.999 179.965 172.594 178.957 170.395 177.828 170.09 178.29 1.08368 -26.6057 2.35407 165.193 -148.088 -122.901 0.717297 -37.3034 -1.33756 -0 11.1626 7.68427 175.84 -167.806 -173.003 142.411 177.95 133.141 98.7874 84.456 -97.3927 -0 20.9162 -0.472192 20.2215 11.0959 -2.18625 153.198 176.849 179.729 14.4745 -0.181788 -1.29425 1.16464 0 0 8.60424 2.78961 -3.93725 155.112 -166.343 -179.476 18.5402 2.50608 -6.3421 179.823 180 -180
 115.462 90.81 63.3349 171.721 162.654 -173.429 180 -179.887 179.812 2.28496 -0.22678 -0.312954 2.66885 -0.68034 -0.312974 2.68285 -0.113391 -0.187771 178.058 179.998 179.937 172.035 178.882 170.837 177.651 170.479 178.402 1.06275 -26.4172 2.30847 166.228 -148.502 -122.403 0.773748 -37.1509 -1.35688 -0 11.2491 6.95173 176.123 -167.473 -173.514 144.889 179.732 133.059 69.1808 84.0674 -67.6569 -0 20.562 0.475594 19.8475 11.3815 -2.94551 153.252 176.863 179.486 15.3823 -0.315968 -0.723154 1.12108 0 0 10.263 0.0486559 -3.99136 152.248 -165.337 -179.911 18.3888 2.34136 -7.30748 179.764 180 -180
 115.364 90.8191 62.9407 171.699 164.284 -172.937 180 -179.92 179.727 2.28034 -0.160193 -0.454492 2.73129 -0.480579 -0.454506 2.88116 -0.0800981 -0.272694 177.586 179.996 179.909 170.7 178.904 170.828 177.246 170.873 178.418 1.14692 -26.0717 2.4911 167.104 -149.248 -122.505 0.784 -36.8137 -1.42362 -0 11.3145 6.1108 176.352 -167.505 -173.897 146.984 -178.949 133.271 47.1999 82.368 -45.5028 -0 20.191 1.37521 19.0442 11.7331 -3.8582 154.319 176.993 179.748 15.7833 -0.126409 0.700244 1.10805 0 0 12.9343 -3.68447 -3.62576 148.293 -163.901 179.608 17.4638 1.44652 -8.19953 179.544 180 -180
 115.08 90.7653 62.3259 171.802 164.636 -173.014 179.999 -179.867 179.76 2.28057 -0.266449 -0.400503 2.76301 -0.799347 -0.400538 2.97956 -0.133227 -0.2403 177.358 179.996 179.92 170.04 179.078 170.721 177.051 171.293 178.374 1.16618 -25.966 2.53283 167.873 -149.732 -122.253 0.839388 -36.7413 -1.22848 -0 11.356 5.43579 176.469 -167.054 -174.134 148.591 -178.01 133.171 38.4735 80.7311 -36.6706 -0 19.8874 2.2515 18.8528 11.9362 -3.4884 153.463 176.778 178.822 16.5071 -0.420417 0.0799673 1.05821 0 0 14.4915 -6.20457 -3.10878 146.218 -163.152 179.887 16.2123 1.37709 -8.64853 179.594 180 -180
 115.019 91.0123 61.8504 171.795 166.683 -172.541 179.999 -179.903 179.62 2.25498 -0.194855 -0.63259 2.78468 -0.584566 -0.63262 3.10613 -0.0974314 -0.379553 177.014 179.993 179.874 169.068 179.242 170.374 176.764 171.619 178.285 1.19722 -25.4517 2.5996 167.632 -150.379 -121.708 0.875616 -36.6613 -1.32138 -0 11.5251 4.76719 176.85 -167.275 -174.754 150.208 -177.506 133.106 30.5964 78.3611 -28.454 -0 19.5262 3.22321 18.0949 12.3925 -4.18964 154.545 176.528 178.594 16.4497 -0.130696 1.11227 1.05148 0 0 18.2094 -10.2812 -2.38624 142.575 -161.597 179.799 11.6994 0.541071 -8.44758 179.421 180 -180
 114.881 91.3856 61.2319 171.997 168.296 -171.738 179.999 -179.943 179.422 2.18769 -0.113005 -0.963357 2.75784 -0.339015 -0.963372 3.18101 -0.0565076 -0.578014 176.712 179.989 179.808 168.258 179.413 170.11 176.525 171.991 178.206 1.34717 -25.2685 2.92509 167.538 -150.767 -121.06 0.974802 -36.7125 -1.21476 -0 11.687 4.23763 176.926 -167.331 -174.877 151.323 -177.34 133.098 25.7975 76.0833 -23.5022 -0 19.1274 4.00714 17.1205 12.6243 -5.10927 155.585 176.406 178.128 16.2817 -0.0653998 2.01395 1.03972 0 0 22.7706 -13.7298 -1.63191 139.653 -160.142 179.66 177.459 -179.958 172.324 179.233 180 -180
 114.55 91.4599 61.0598 171.88 169.645 -171.803 179.999 -179.931 179.421 2.15601 -0.138612 -0.964729 2.7435 -0.415835 -0.964752 3.21469 -0.0693121 -0.578836 176.574 179.988 179.807 167.883 179.585 169.909 176.418 172.289 178.134 1.31319 -25.2391 2.85121 167.675 -150.724 -119.89 1.18364 -37.4027 -0.967115 -0 11.7788 3.85699 177.08 -167.423 -175.128 152.215 -177.239 132.946 22.9204 74.0018 -20.3973 -0 18.7759 4.7568 16.8344 13.1031 -4.93277 155.909 175.963 177.959 16.3277 -0.0908898 2.0197 1.0113 0 0 24.8839 -15.8191 -0.42228 139.024 -159.592 179.719 175.631 -179.951 172.181 179.231 180 -180
 114.415 91.5181 60.4004 171.72 170.633 -171.847 179.999 -179.943 179.407 2.1246 -0.114545 -0.988632 2.71257 -0.343635 -0.988648 3.1929 -0.0572779 -0.593179 176.565 179.988 179.803 167.864 179.928 169.612 176.423 172.73 178.007 1.24042 -25.5965 2.69368 167.085 -150.529 -118.79 1.46575 -38.0032 -0.790997 -0 11.9432 3.66995 177.137 -166.832 -175.265 152.549 -176.84 132.57 21.0259 72.1871 -18.3916 -0 18.5241 5.52408 16.2493 13.2291 -4.88072 156.361 175.628 177.816 16.4751 -0.10991 2.53269 0.988885 0 0 26.9294 -17.5471 0.893606 139.487 -159.11 179.836 174.054 -179.932 172.03 179.23 180 -180
